<?xml version="1.0" encoding="utf-8"?>
<!-- Generator: Adobe Illustrator 26.3.1, SVG Export Plug-In . SVG Version: 6.00 Build 0)  -->
<svg version="1.1" id="Ebene_1" xmlns="http://www.w3.org/2000/svg" xmlns:xlink="http://www.w3.org/1999/xlink" x="0px" y="0px"
	 viewBox="0 0 37 37" style="enable-background:new 0 0 37 37;" xml:space="preserve">
<style type="text/css">
	.st0{fill:none;stroke:#1FA2DC;stroke-width:0.9606;stroke-linecap:round;}
	.st1{fill:none;stroke:#878787;stroke-width:0.9493;stroke-miterlimit:10;}
	.st2{fill:none;stroke:#878787;stroke-width:0.9493;stroke-linecap:round;stroke-miterlimit:10;}
	.st3{fill:none;stroke:#1FA2DC;stroke-width:0.9;stroke-linecap:round;stroke-miterlimit:10;}
	.st4{fill:none;stroke:#878787;stroke-width:0.9;stroke-miterlimit:10;}
</style>
<g id="Ebene_2_00000169518788014224595040000005475267044814765217_">
</g>
<path class="st0" d="M1.8,14.7C-0.3,24,5.6,33.3,14.9,35.3s18.6-3.8,20.6-13.2S31.7,3.5,22.4,1.5c-3.1-0.6-6.2-0.4-9,0.4"/>
<line class="st1" x1="10.2" y1="18.1" x2="10.2" y2="30.5"/>
<line class="st1" x1="27.4" y1="18.1" x2="27.4" y2="30.5"/>
<line class="st2" x1="5" y1="18.1" x2="32.6" y2="18.1"/>
<g>
	<path class="st1" d="M21.3,13.9H10.5c-0.7,0-1-0.5-1-1V7.6c0-0.7,0.5-1,1-1h10.8c0.7,0,1,0.5,1,1v5.2
		C22.2,13.5,21.8,13.9,21.3,13.9z"/>
	<line class="st2" x1="13.5" y1="16.6" x2="18.2" y2="16.6"/>
	<line class="st1" x1="15.8" y1="13.9" x2="15.8" y2="16.5"/>
</g>
<path class="st3" d="M10.1,3.4c0.8-0.4,1.2-0.7,1.9-1"/>
<line class="st4" x1="15.6" y1="1.4" x2="15.6" y2="1.4"/>
</svg>
