<svg xmlns="http://www.w3.org/2000/svg" width="36" height="35.4" viewBox="0 0 36 35.4">
  <g id="server" transform="translate(0 -0.5)">
    <path id="Path_92" data-name="Path 92" d="M8.7,6.5a2.7,2.7,0,1,0,2.7,2.7A2.7,2.7,0,0,0,8.7,6.5Zm0,4.2a1.5,1.5,0,1,1,1.5-1.5A1.5,1.5,0,0,1,8.7,10.7Z" transform="translate(-2.4 -2.4)" fill="#00aeef"/>
    <circle id="Ellipse_8" data-name="Ellipse 8" cx="0.6" cy="0.6" r="0.6" transform="translate(29.4 5.3)" fill="#868686"/>
    <circle id="Ellipse_9" data-name="Ellipse 9" cx="0.6" cy="0.6" r="0.6" transform="translate(27 5.3)" fill="#868686"/>
    <circle id="Ellipse_10" data-name="Ellipse 10" cx="0.6" cy="0.6" r="0.6" transform="translate(30.6 7.1)" fill="#868686"/>
    <circle id="Ellipse_11" data-name="Ellipse 11" cx="0.6" cy="0.6" r="0.6" transform="translate(28.2 7.1)" fill="#868686"/>
    <circle id="Ellipse_12" data-name="Ellipse 12" cx="0.6" cy="0.6" r="0.6" transform="translate(24.6 5.3)" fill="#868686"/>
    <circle id="Ellipse_13" data-name="Ellipse 13" cx="0.6" cy="0.6" r="0.6" transform="translate(25.8 7.1)" fill="#868686"/>
    <circle id="Ellipse_14" data-name="Ellipse 14" cx="0.6" cy="0.6" r="0.6" transform="translate(22.2 5.3)" fill="#868686"/>
    <circle id="Ellipse_15" data-name="Ellipse 15" cx="0.6" cy="0.6" r="0.6" transform="translate(23.4 7.1)" fill="#868686"/>
    <circle id="Ellipse_16" data-name="Ellipse 16" cx="0.6" cy="0.6" r="0.6" transform="translate(19.8 5.3)" fill="#868686"/>
    <circle id="Ellipse_17" data-name="Ellipse 17" cx="0.6" cy="0.6" r="0.6" transform="translate(21 7.1)" fill="#868686"/>
    <path id="Path_93" data-name="Path 93" d="M36,10.335V3.265A2.768,2.768,0,0,0,33.235.5H2.765A2.768,2.768,0,0,0,0,3.265v7.07A2.749,2.749,0,0,0,1.066,12.5,2.752,2.752,0,0,0,0,14.665v7.07A2.749,2.749,0,0,0,1.066,23.9,2.752,2.752,0,0,0,0,26.065v7.07A2.768,2.768,0,0,0,2.765,35.9h30.47A2.768,2.768,0,0,0,36,33.135v-7.07A2.749,2.749,0,0,0,34.933,23.9,2.748,2.748,0,0,0,36,21.735v-7.07A2.749,2.749,0,0,0,34.934,12.5,2.749,2.749,0,0,0,36,10.335Zm-1.2,15.73v7.07A1.567,1.567,0,0,1,33.235,34.7H2.765A1.566,1.566,0,0,1,1.2,33.135v-7.07A1.567,1.567,0,0,1,2.765,24.5h30.47A1.567,1.567,0,0,1,34.8,26.065Zm0-11.4v7.07A1.567,1.567,0,0,1,33.235,23.3H2.765A1.566,1.566,0,0,1,1.2,21.735v-7.07A1.567,1.567,0,0,1,2.765,13.1h30.47A1.567,1.567,0,0,1,34.8,14.665ZM2.765,11.9A1.567,1.567,0,0,1,1.2,10.335V3.265A1.567,1.567,0,0,1,2.765,1.7h30.47A1.567,1.567,0,0,1,34.8,3.265v7.07A1.567,1.567,0,0,1,33.235,11.9H2.765Z" fill="#868686"/>
    <path id="Path_94" data-name="Path 94" d="M8.7,30.9A2.7,2.7,0,1,0,6,28.2,2.7,2.7,0,0,0,8.7,30.9Zm0-4.2a1.5,1.5,0,1,1-1.5,1.5A1.5,1.5,0,0,1,8.7,26.7Z" transform="translate(-2.4 -10)" fill="#00aeef"/>
    <circle id="Ellipse_18" data-name="Ellipse 18" cx="0.6" cy="0.6" r="0.6" transform="translate(29.4 16.7)" fill="#868686"/>
    <circle id="Ellipse_19" data-name="Ellipse 19" cx="0.6" cy="0.6" r="0.6" transform="translate(27 16.7)" fill="#868686"/>
    <circle id="Ellipse_20" data-name="Ellipse 20" cx="0.6" cy="0.6" r="0.6" transform="translate(30.6 18.5)" fill="#868686"/>
    <circle id="Ellipse_21" data-name="Ellipse 21" cx="0.6" cy="0.6" r="0.6" transform="translate(28.2 18.5)" fill="#868686"/>
    <circle id="Ellipse_22" data-name="Ellipse 22" cx="0.6" cy="0.6" r="0.6" transform="translate(24.6 16.7)" fill="#868686"/>
    <circle id="Ellipse_23" data-name="Ellipse 23" cx="0.6" cy="0.6" r="0.6" transform="translate(25.8 18.5)" fill="#868686"/>
    <circle id="Ellipse_24" data-name="Ellipse 24" cx="0.6" cy="0.6" r="0.6" transform="translate(22.2 16.7)" fill="#868686"/>
    <circle id="Ellipse_25" data-name="Ellipse 25" cx="0.6" cy="0.6" r="0.6" transform="translate(23.4 18.5)" fill="#868686"/>
    <circle id="Ellipse_26" data-name="Ellipse 26" cx="0.6" cy="0.6" r="0.6" transform="translate(19.8 16.7)" fill="#868686"/>
    <circle id="Ellipse_27" data-name="Ellipse 27" cx="0.6" cy="0.6" r="0.6" transform="translate(21 18.5)" fill="#868686"/>
    <path id="Path_95" data-name="Path 95" d="M8.7,49.9A2.7,2.7,0,1,0,6,47.2,2.7,2.7,0,0,0,8.7,49.9Zm0-4.2a1.5,1.5,0,1,1-1.5,1.5A1.5,1.5,0,0,1,8.7,45.7Z" transform="translate(-2.4 -17.6)" fill="#00aeef"/>
    <circle id="Ellipse_28" data-name="Ellipse 28" cx="0.6" cy="0.6" r="0.6" transform="translate(29.4 28.1)" fill="#868686"/>
    <circle id="Ellipse_29" data-name="Ellipse 29" cx="0.6" cy="0.6" r="0.6" transform="translate(27 28.1)" fill="#868686"/>
    <circle id="Ellipse_30" data-name="Ellipse 30" cx="0.6" cy="0.6" r="0.6" transform="translate(30.6 29.9)" fill="#868686"/>
    <circle id="Ellipse_31" data-name="Ellipse 31" cx="0.6" cy="0.6" r="0.6" transform="translate(28.2 29.9)" fill="#868686"/>
    <circle id="Ellipse_32" data-name="Ellipse 32" cx="0.6" cy="0.6" r="0.6" transform="translate(24.6 28.1)" fill="#868686"/>
    <circle id="Ellipse_33" data-name="Ellipse 33" cx="0.6" cy="0.6" r="0.6" transform="translate(25.8 29.9)" fill="#868686"/>
    <circle id="Ellipse_34" data-name="Ellipse 34" cx="0.6" cy="0.6" r="0.6" transform="translate(22.2 28.1)" fill="#868686"/>
    <circle id="Ellipse_35" data-name="Ellipse 35" cx="0.6" cy="0.6" r="0.6" transform="translate(23.4 29.9)" fill="#868686"/>
    <circle id="Ellipse_36" data-name="Ellipse 36" cx="0.6" cy="0.6" r="0.6" transform="translate(19.8 28.1)" fill="#868686"/>
    <circle id="Ellipse_37" data-name="Ellipse 37" cx="0.6" cy="0.6" r="0.6" transform="translate(21 29.9)" fill="#868686"/>
  </g>
</svg>
