<svg xmlns="http://www.w3.org/2000/svg" width="27" height="36" viewBox="0 0 27 36">
  <g id="outline" transform="translate(-56 -16)">
    <path id="Path_96" data-name="Path 96" d="M71,16H62.6a2.4,2.4,0,0,0-2.4,2.4V37H56.6a.6.6,0,0,0-.6.6v3.6a.6.6,0,0,0,.6.6h3.6V43H56.6a.6.6,0,0,0-.6.6v3.6a.6.6,0,0,0,.6.6h3.6v1.8A2.4,2.4,0,0,0,62.6,52H71a2.4,2.4,0,0,0,2.4-2.4V18.4A2.4,2.4,0,0,0,71,16ZM57.2,40.6V38.2h3v2.4Zm0,6V44.2h3v2.4Zm15,3A1.2,1.2,0,0,1,71,50.8H62.6a1.2,1.2,0,0,1-1.2-1.2V18.4a1.2,1.2,0,0,1,1.2-1.2H71a1.2,1.2,0,0,1,1.2,1.2Z" transform="translate(0 0)" fill="#868686"/>
    <circle id="Ellipse_38" data-name="Ellipse 38" cx="0.6" cy="0.6" r="0.6" transform="translate(66.2 19)" fill="#00aeef"/>
    <path id="Path_97" data-name="Path 97" d="M318,16h-4.2a.6.6,0,0,0-.5.267,7.721,7.721,0,0,0-1.3,4.3V47.437a7.721,7.721,0,0,0,1.3,4.3.6.6,0,0,0,.5.267H318a.6.6,0,0,0,.5-.267,7.721,7.721,0,0,0,1.3-4.3V20.563a7.721,7.721,0,0,0-1.3-4.3A.6.6,0,0,0,318,16Zm.6,31.437a6.522,6.522,0,0,1-.93,3.363h-3.54a6.522,6.522,0,0,1-.93-3.363V20.563a6.522,6.522,0,0,1,.93-3.363h3.54a6.522,6.522,0,0,1,.93,3.363Z" transform="translate(-236.8)" fill="#868686"/>
    <path id="Path_98" data-name="Path 98" d="M336.6,64a.6.6,0,0,0-.6.6v6a.6.6,0,0,0,.6.6h3a.6.6,0,0,0,.6-.6v-6a.6.6,0,0,0-.6-.6Zm2.4,6h-1.8V65.2H339Z" transform="translate(-259 -44.4)" fill="#00aeef"/>
    <path id="Path_99" data-name="Path 99" d="M339.6,176h-3a.6.6,0,0,0-.6.6v6a.6.6,0,0,0,.6.6h3a.6.6,0,0,0,.6-.6v-6a.6.6,0,0,0-.6-.6Zm-.6,6h-1.8v-4.8H339Z" transform="translate(-259 -148)" fill="#00aeef"/>
    <path id="Path_100" data-name="Path 100" d="M344,288h1.2v2.4H344Z" transform="translate(-266.4 -251.6)" fill="#868686"/>
    <path id="Path_101" data-name="Path 101" d="M368,288h1.2v6.6H368Z" transform="translate(-288.6 -251.6)" fill="#868686"/>
    <path id="Path_102" data-name="Path 102" d="M345.5,392a1.5,1.5,0,0,0-1.5,1.5v2.4a1.5,1.5,0,0,0,3,0v-2.4A1.5,1.5,0,0,0,345.5,392Zm.3,3.9a.3.3,0,0,1-.6,0v-2.4a.3.3,0,0,1,.6,0Z" transform="translate(-266.4 -347.8)" fill="#00aeef"/>
  </g>
</svg>
