<svg width="32" height="33" viewBox="0 0 32 33" fill="none" xmlns="http://www.w3.org/2000/svg">
<path d="M20.625 30.479V30.979H21.125H28.25C29.216 30.979 30 30.193 30 29.2273V4.69363C30 3.72793 29.216 2.94191 28.25 2.94191H3.75C2.78396 2.94191 2 3.72793 2 4.69363V29.2273C2 30.193 2.78396 30.979 3.75 30.979H17.2514H17.7514V30.479V20.2775V19.7775H17.2514H14V16.8972H17.2514H17.7514V16.3972V13.7169C17.7514 10.8039 20.0955 8.44809 23 8.44809H25.0625V11.3284H23C21.6623 11.3284 20.625 12.3681 20.625 13.706V16.3972V16.8972H21.125H25.0361L24.5624 19.7775H21.125H20.625V20.2775V30.479ZM3.75 1.43848H28.25C30.041 1.43848 31.5 2.89853 31.5 4.69363V29.2273C31.5 31.0224 30.041 32.4824 28.25 32.4824H3.75C1.95904 32.4824 0.5 31.0224 0.5 29.2273V4.69363C0.5 2.89853 1.95904 1.43848 3.75 1.43848Z" fill="#656565" stroke="#656565"/>
</svg>
