<svg width="32" height="33" viewBox="0 0 32 33" fill="none" xmlns="http://www.w3.org/2000/svg">
<path d="M26 31.4824H6C3.51637 31.4824 1.5 29.4662 1.5 26.9742V6.94672C1.5 4.45465 3.51637 2.43848 6 2.43848H26C28.4836 2.43848 30.5 4.45465 30.5 6.94672V26.9742C30.5 29.4662 28.4836 31.4824 26 31.4824Z" stroke="#656565" stroke-width="3"/>
<path d="M22.7916 18.9022V23.7441H20.7793V19.5103V19.5051C20.7793 18.9634 20.7793 18.2214 20.5398 17.6158C20.414 17.2976 20.2136 16.9918 19.8946 16.7689C19.5745 16.5453 19.1776 16.4351 18.7113 16.4351C18.2542 16.4351 17.8576 16.5246 17.5248 16.7091C17.1893 16.8952 16.9487 17.1612 16.7813 17.4652C16.4594 18.0498 16.4033 18.7856 16.4033 19.4287V23.7441H14.3909V15.0193H16.2833V15.8456V16.3456H16.7833H16.8255H17.1126L17.2573 16.0975C17.501 15.6799 17.8532 15.3364 18.2763 15.1035C18.6994 14.8707 19.1777 14.7572 19.66 14.775L19.6693 14.7754H19.6786C21.0824 14.7754 21.8004 15.2269 22.2072 15.8743C22.6475 16.5751 22.7916 17.6054 22.7916 18.9022ZM11.5022 23.7441H9.48619V15.0193H11.5022V23.7441ZM11.3718 12.3181C11.1379 12.5547 10.8202 12.6892 10.4881 12.6924C10.2403 12.6936 9.99766 12.6212 9.7908 12.4844L9.51494 12.9014L9.7908 12.4844C9.58368 12.3474 9.42169 12.1519 9.32542 11.9225C9.22915 11.6931 9.20296 11.4403 9.25021 11.1959C9.29745 10.9516 9.41598 10.7269 9.59069 10.5502C9.76539 10.3735 9.98842 10.2527 10.2315 10.2031C10.4746 10.1534 10.727 10.1771 10.9567 10.2711C11.1864 10.3651 11.3832 10.5252 11.5222 10.7314C11.661 10.9373 11.7358 11.1799 11.7371 11.4284C11.7371 11.7617 11.6058 12.0814 11.3718 12.3181Z" fill="#656565" stroke="#656565"/>
</svg>
