<svg id="surface1" xmlns="http://www.w3.org/2000/svg" width="35.4" height="36" viewBox="0 0 35.4 36">
  <path id="Path_103" data-name="Path 103" d="M.6,36h9.6a.6.6,0,0,0,.6-.6V22.2a.6.6,0,0,0-.176-.424L9,20.152V18a.6.6,0,0,0-.6-.6H7.2V8.1a4.5,4.5,0,1,1,9,0V27.3a8.7,8.7,0,1,0,17.4,0V12.6h1.2a.6.6,0,0,0,.6-.6V4.2a.6.6,0,0,0-.6-.6h-.6V.6a.6.6,0,0,0-.6-.6H30a.6.6,0,0,0-.6.6v3h-.6a.6.6,0,0,0-.6.6V12a.6.6,0,0,0,.6.6H30V27.3a5.1,5.1,0,0,1-10.2,0V8.1a8.1,8.1,0,1,0-16.2,0v9.3H2.4a.6.6,0,0,0-.6.6v2.152L.176,21.776A.6.6,0,0,0,0,22.2V35.4A.6.6,0,0,0,.6,36Zm9-1.2H1.2V32.4H2.4v1.2H3.6V32.4H4.8v1.2H6V32.4H7.2v1.2H8.4V32.4H9.6Zm21-33.6H33V3.6H30.6ZM29.4,4.8h4.8v6.6H29.4Zm1.8,7.8h1.2V15H31.2ZM4.8,8.1a6.9,6.9,0,1,1,13.8,0V27.3a6.3,6.3,0,0,0,12.6,0V16.2h1.2V27.3a7.5,7.5,0,0,1-15,0V8.1A5.7,5.7,0,1,0,6,8.1v9.3H4.8ZM2.824,20.824A.6.6,0,0,0,3,20.4V18.6H7.8v1.8a.6.6,0,0,0,.176.424L9.6,22.448V31.2H1.2V22.448Zm0,0" fill="#868686"/>
  <path id="Path_104" data-name="Path 104" d="M51.2,455.171l1.2-.6V457.2h1.2v-4.429l1.2.6V454.8H56V453a.6.6,0,0,0-.332-.54L53.6,451.429V450H52.4v3.229l-2.068,1.034A.6.6,0,0,0,50,454.8V456h1.2Zm0,0" transform="translate(-47.6 -428.4)" fill="#00aeef"/>
</svg>
