<svg xmlns="http://www.w3.org/2000/svg" width="32.54" height="36" viewBox="0 0 32.54 36">
  <g id="usb_1_" data-name="usb (1)" transform="translate(-24.607)">
    <path id="Path_112" data-name="Path 112" d="M44.98,38.209h-6.55V36.124A.528.528,0,0,0,37.9,35.6h-.011a6.452,6.452,0,0,1,.716-1.737c1.153-1.91,3.254-2.878,6.243-2.878s5.09.968,6.243,2.878a6.717,6.717,0,0,1,.912,2.991v4.193a.528.528,0,0,0,1.057,0v-4.2A7.648,7.648,0,0,0,52,33.312c-1.358-2.248-3.763-3.388-7.148-3.388s-5.79,1.14-7.148,3.388a7.6,7.6,0,0,0-.9,2.283h-1.07a8.667,8.667,0,0,1,1.02-2.738,7.6,7.6,0,0,1,1.188-1.541.528.528,0,0,0-.746-.749,8.659,8.659,0,0,0-1.354,1.755A9.77,9.77,0,0,0,34.661,35.6h-.334a.528.528,0,0,0-.528.528v2.085h-6.55a2.645,2.645,0,0,0-2.642,2.642V56.684a2.645,2.645,0,0,0,2.642,2.642h2.1v2.637a1.859,1.859,0,0,0,1.857,1.857h9.814a1.859,1.859,0,0,0,1.857-1.857V59.326h2.1a2.645,2.645,0,0,0,2.642-2.642V40.851a2.645,2.645,0,0,0-2.642-2.642ZM34.855,36.652h2.518v1.557H34.855V36.652Zm6.966,25.311a.8.8,0,0,1-.8.8H31.207a.8.8,0,0,1-.8-.8V59.326h.878v1.719a.528.528,0,0,0,.528.528H34.06a.528.528,0,1,0,0-1.057H32.343v-1.19h7.544v1.19H36.115a.528.528,0,0,0,0,1.057h4.3a.528.528,0,0,0,.528-.528V59.326h.878v2.637Zm4.744-5.279a1.587,1.587,0,0,1-1.585,1.585H27.249a1.587,1.587,0,0,1-1.585-1.585V40.851a1.587,1.587,0,0,1,1.585-1.585H44.98a1.587,1.587,0,0,1,1.585,1.585Z" transform="translate(0 -27.82)" fill="#868686"/>
    <path id="Path_113" data-name="Path 113" d="M150.538,291.848a.529.529,0,0,0-.374-.155h-2.085a1.194,1.194,0,0,0-1.193,1.192v4.749a1.194,1.194,0,0,0,1.192,1.192h3.435a1.194,1.194,0,0,0,1.192-1.192v-3.4a.529.529,0,0,0-.155-.374Zm1.112,5.786a.136.136,0,0,1-.136.136H148.08a.136.136,0,0,1-.136-.136v-4.749a.136.136,0,0,1,.136-.136h1.866l1.7,1.7v3.18Z" transform="translate(-113.682 -271.184)" fill="#00aeef"/>
    <path id="Path_114" data-name="Path 114" d="M152.314,217.218h4.074a.528.528,0,0,0,.41-.862l-2.037-2.5a.528.528,0,0,0-.82,0l-2.037,2.5a.528.528,0,0,0,.41.862Zm2.037-2.194.926,1.137h-1.851Z" transform="translate(-118.236 -198.636)" fill="#00aeef"/>
    <path id="Path_115" data-name="Path 115" d="M243.309,21.781h-.715V19.149a.528.528,0,0,0-.528-.528h-.207v-9.6A9.794,9.794,0,0,0,240.549,4.5C239.343,2.448,236.8,0,231.542,0a11.711,11.711,0,0,0-5.857,1.385.528.528,0,0,0,.523.918,10.677,10.677,0,0,1,5.334-1.246c2.628,0,6.165.691,8.1,3.98A8.626,8.626,0,0,1,240.8,9.024v9.6h-1.047V15.335a.528.528,0,0,0-1.057,0V18.62h-.207a.528.528,0,0,0-.528.528v2.632h-.715a.528.528,0,0,0-.528.528v8.415a.528.528,0,0,0,.528.528h.4v4.219a.528.528,0,0,0,.528.528h4.207a.528.528,0,0,0,.528-.528V31.252h.4a.528.528,0,0,0,.528-.528V22.309a.529.529,0,0,0-.528-.528Zm-4.291-2.1h2.518v2.1h-2.518Zm-1.244,3.16h5.006V30.2h-5.006Zm4.078,12.106H238.7V31.252h3.151Z" transform="translate(-186.691)" fill="#868686"/>
  </g>
</svg>
