<svg width="32" height="32" viewBox="0 0 32 32" fill="none" xmlns="http://www.w3.org/2000/svg">
<rect width="32" height="32" rx="5" fill="#F0F0F0"/>
<path d="M24.0601 13C23.4787 13 22.9103 13.1724 22.4268 13.4955C21.9433 13.8185 21.5665 14.2776 21.344 14.8148C21.1215 15.352 21.0633 15.9431 21.1767 16.5134C21.2902 17.0837 21.5702 17.6075 21.9813 18.0187C22.3925 18.4298 22.9163 18.7098 23.4866 18.8233C24.0569 18.9367 24.648 18.8785 25.1852 18.656C25.7224 18.4335 26.1815 18.0566 26.5045 17.5732C26.8276 17.0897 27 16.5213 27 15.9399C26.9991 15.1604 26.6891 14.4132 26.1379 13.862C25.5868 13.3109 24.8395 13.0009 24.0601 13ZM24.0601 17.4331C23.7646 17.4331 23.4757 17.3455 23.23 17.1813C22.9843 17.0172 22.7928 16.7838 22.6797 16.5108C22.5666 16.2378 22.5371 15.9374 22.5947 15.6476C22.6524 15.3577 22.7947 15.0915 23.0036 14.8826C23.2126 14.6736 23.4788 14.5313 23.7686 14.4736C24.0585 14.416 24.3589 14.4456 24.6319 14.5587C24.9049 14.6718 25.1383 14.8633 25.3024 15.109C25.4666 15.3547 25.5542 15.6435 25.5542 15.939C25.554 16.3353 25.3965 16.7153 25.1164 16.9956C24.8363 17.2759 24.4564 17.4335 24.0601 17.434V17.4331Z" fill="#868686"/>
<path d="M15.9996 13C15.4181 13 14.8497 13.1724 14.3663 13.4955C13.8828 13.8185 13.506 14.2776 13.2835 14.8148C13.061 15.352 13.0027 15.9431 13.1162 16.5134C13.2296 17.0837 13.5096 17.6075 13.9208 18.0187C14.3319 18.4298 14.8558 18.7098 15.426 18.8233C15.9963 18.9367 16.5874 18.8785 17.1246 18.656C17.6618 18.4335 18.121 18.0566 18.444 17.5732C18.767 17.0897 18.9395 16.5213 18.9395 15.9399C18.9386 15.1604 18.6285 14.4132 18.0774 13.862C17.5263 13.3109 16.779 13.0009 15.9996 13ZM15.9996 17.4331C15.7041 17.4331 15.4152 17.3455 15.1695 17.1813C14.9238 17.0172 14.7323 16.7838 14.6192 16.5108C14.5061 16.2378 14.4765 15.9374 14.5342 15.6476C14.5918 15.3577 14.7341 15.0915 14.9431 14.8826C15.152 14.6736 15.4183 14.5313 15.7081 14.4736C15.9979 14.416 16.2983 14.4456 16.5713 14.5587C16.8443 14.6718 17.0777 14.8633 17.2419 15.109C17.406 15.3547 17.4937 15.6435 17.4937 15.939C17.4935 16.3353 17.336 16.7153 17.0559 16.9956C16.7757 17.2759 16.3958 17.4335 15.9996 17.434V17.4331Z" fill="#00AEEF"/>
<path d="M7.93988 13C7.35843 13 6.79003 13.1724 6.30657 13.4955C5.82311 13.8185 5.4463 14.2776 5.22379 14.8148C5.00127 15.352 4.94305 15.9431 5.05649 16.5134C5.16993 17.0837 5.44992 17.6075 5.86107 18.0187C6.27222 18.4298 6.79606 18.7098 7.36634 18.8233C7.93662 18.9367 8.52773 18.8785 9.06492 18.656C9.60211 18.4335 10.0613 18.0566 10.3843 17.5732C10.7073 17.0897 10.8798 16.5213 10.8798 15.9399C10.8789 15.1604 10.5689 14.4132 10.0177 13.862C9.46657 13.3109 8.71931 13.0009 7.93988 13ZM7.93988 17.4331C7.6443 17.4333 7.35532 17.3458 7.10948 17.1817C6.86365 17.0176 6.67202 16.7842 6.55883 16.5112C6.44564 16.2381 6.41599 15.9377 6.47361 15.6478C6.53123 15.3579 6.67355 15.0916 6.88255 14.8826C7.09156 14.6735 7.35786 14.5312 7.64776 14.4736C7.93767 14.416 8.23815 14.4456 8.5112 14.5588C8.78424 14.672 9.01758 14.8636 9.18169 15.1095C9.3458 15.3553 9.43331 15.6443 9.43315 15.9399C9.43271 16.3359 9.27527 16.7155 8.99534 16.9956C8.71542 17.2757 8.33586 17.4333 7.93988 17.434V17.4331Z" fill="#868686"/>
</svg>
