<svg width="28" height="28" viewBox="0 0 28 28" fill="none" xmlns="http://www.w3.org/2000/svg">
<path d="M12.8523 24.7764L16.6401 27.7863C16.7846 27.901 16.9597 27.973 17.1447 27.9938C17.3297 28.0145 17.5169 27.9831 17.6843 27.9033C17.8517 27.8235 17.9922 27.6986 18.0893 27.5434C18.1865 27.3881 18.2362 27.2089 18.2326 27.0269L18.177 24.2558C20.8298 23.5195 23.2153 22.0744 24.9581 20.1346C26.948 17.9196 28 15.2482 28 12.4092C28 5.56671 21.7196 0 14 0C6.28038 0 0 5.56671 0 12.4092C0 18.8782 5.61921 24.2561 12.8523 24.7764ZM21.1628 16.2274V10.8183H21.814C22.2456 10.8187 22.6593 10.9865 22.9645 11.2848C23.2697 11.583 23.4414 11.9874 23.4419 12.4092V15.7501C23.4414 16.1297 23.2869 16.4936 23.0122 16.7621C22.7376 17.0305 22.3652 17.1815 21.9767 17.1819H20.9C21.0724 16.892 21.1631 16.5627 21.1628 16.2274ZM7.81395 9.8637C7.81395 8.26033 8.4657 6.72264 9.6258 5.58889C10.7859 4.45514 12.3594 3.81821 14 3.81821C15.6406 3.81821 17.2141 4.45514 18.3742 5.58889C19.5343 6.72264 20.186 8.26033 20.186 9.8637V16.2274C20.186 16.4805 20.0831 16.7233 19.9 16.9023C19.7168 17.0814 19.4684 17.1819 19.2093 17.1819C18.9503 17.1819 18.7018 17.0814 18.5186 16.9023C18.3355 16.7233 18.2326 16.4805 18.2326 16.2274V9.8637C18.2326 8.76666 17.7866 7.71455 16.9929 6.93883C16.1991 6.16311 15.1225 5.72731 14 5.72731C12.8775 5.72731 11.8009 6.16311 11.0071 6.93883C10.2134 7.71455 9.76744 8.76666 9.76744 9.8637V17.5001C9.76772 17.7532 9.87072 17.9958 10.0538 18.1748C10.2369 18.3537 10.4852 18.4544 10.7442 18.4547H15.3023C15.5614 18.4547 15.8098 18.5552 15.993 18.7342C16.1762 18.9133 16.2791 19.1561 16.2791 19.4092C16.2791 19.6624 16.1762 19.9052 15.993 20.0842C15.8098 20.2632 15.5614 20.3638 15.3023 20.3638H10.7442C9.96731 20.3629 9.22249 20.0609 8.67315 19.5241C8.12381 18.9872 7.81482 18.2593 7.81395 17.5001V9.8637ZM4.55814 12.4092C4.55864 11.9874 4.73031 11.583 5.03549 11.2848C5.34067 10.9865 5.75445 10.8187 6.18605 10.8183H6.83721V17.1819H6.02326C5.63482 17.1815 5.26243 17.0305 4.98776 16.7621C4.7131 16.4936 4.55859 16.1297 4.55814 15.7501V12.4092Z" fill="white"/>
</svg>
