<svg xmlns="http://www.w3.org/2000/svg" width="29.75" height="36" viewBox="0 0 29.75 36">
  <g id="innovation" transform="translate(-44.447)">
    <g id="Group_249" data-name="Group 249" transform="translate(44.447)">
      <path id="Path_138" data-name="Path 138" d="M112.774,73.9a11.21,11.21,0,0,0,6.567-10.187,11.1,11.1,0,0,0-2.108-6.534.527.527,0,0,0-.855.617,10.049,10.049,0,0,1,1.908,5.917,10.153,10.153,0,0,1-5.947,9.226,1.961,1.961,0,0,0-1.155,1.779V77.1h-6.048V74.716A1.947,1.947,0,0,0,104,72.944,10.128,10.128,0,1,1,114.8,56.068a.527.527,0,1,0,.692-.8,11.182,11.182,0,1,0-11.934,18.633.891.891,0,0,1,.52.811V77.1H103.9a1.239,1.239,0,0,0-1.237,1.238V79.2a1.238,1.238,0,0,0,1.143,1.233l.447,2.771a1.94,1.94,0,0,0,1.923,1.638h.756a.527.527,0,1,0,0-1.055h-.756a.89.89,0,0,1-.882-.751l-.419-2.6h.826a.527.527,0,1,0,0-1.055h-1.8a.183.183,0,0,1-.183-.183v-.852a.183.183,0,0,1,.183-.184h8.523a.183.183,0,0,1,.183.184V79.2a.183.183,0,0,1-.183.183H108.16a.527.527,0,0,0,0,1.055h3.287l-.419,2.6a.89.89,0,0,1-.882.751h-.756a.527.527,0,0,0,0,1.055h.756a1.94,1.94,0,0,0,1.923-1.638l.447-2.77a1.238,1.238,0,0,0,1.143-1.233v-.852a1.239,1.239,0,0,0-1.237-1.238h-.183V74.716a.9.9,0,0,1,.536-.818Z" transform="translate(-93.285 -48.836)" fill="#868686"/>
      <path id="Path_139" data-name="Path 139" d="M163.646,113.507v3.125a.527.527,0,0,0,.527.527h11.933a.527.527,0,0,0,.527-.527v-3.125a3.372,3.372,0,0,0-3.368-3.368h-.391a4.079,4.079,0,1,0-5.468,0h-.391A3.372,3.372,0,0,0,163.646,113.507Zm3.47-6.392a3.024,3.024,0,1,1,3.024,3.024A3.027,3.027,0,0,1,167.116,107.115Zm6.149,4.079a2.316,2.316,0,0,1,2.314,2.314v2.6H173.65v-.893a.527.527,0,0,0-1.055,0v.893h-4.912v-.893a.527.527,0,0,0-1.055,0v.893H164.7v-2.6a2.316,2.316,0,0,1,2.314-2.314Z" transform="translate(-155.265 -95.791)" fill="#00aeef"/>
      <path id="Path_140" data-name="Path 140" d="M249.027,2.475a.527.527,0,0,0,.527-.527V.527a.527.527,0,0,0-1.055,0V1.948A.527.527,0,0,0,249.027,2.475Z" transform="translate(-234.153)" fill="#868686"/>
      <path id="Path_141" data-name="Path 141" d="M147.253,29.357a.527.527,0,0,0,.913-.527l-.71-1.23a.527.527,0,0,0-.913.527Z" transform="translate(-139.298 -25.413)" fill="#868686"/>
      <path id="Path_142" data-name="Path 142" d="M72.048,103.009l1.23.71a.527.527,0,0,0,.527-.913l-1.23-.71a.527.527,0,0,0-.527.913Z" transform="translate(-69.862 -94.851)" fill="#868686"/>
      <path id="Path_143" data-name="Path 143" d="M46.922,204.58a.527.527,0,0,0-.527-.527H44.974a.527.527,0,0,0,0,1.055h1.421A.527.527,0,0,0,46.922,204.58Z" transform="translate(-44.447 -189.706)" fill="#868686"/>
      <path id="Path_144" data-name="Path 144" d="M73.278,296.047l-1.23.71a.527.527,0,1,0,.527.913l1.23-.71a.527.527,0,1,0-.527-.913Z" transform="translate(-69.862 -275.165)" fill="#868686"/>
      <path id="Path_145" data-name="Path 145" d="M340.687,29.55a.527.527,0,0,0,.72-.193l.71-1.23a.527.527,0,0,0-.913-.527l-.71,1.23a.527.527,0,0,0,.193.72Z" transform="translate(-319.613 -25.414)" fill="#868686"/>
      <path id="Path_146" data-name="Path 146" d="M408.245,103.789a.525.525,0,0,0,.263-.071l1.23-.71a.527.527,0,1,0-.527-.913l-1.23.71a.527.527,0,0,0,.264.984Z" transform="translate(-382.175 -94.851)" fill="#868686"/>
      <path id="Path_147" data-name="Path 147" d="M434.3,204.053h-1.421a.527.527,0,0,0,0,1.055H434.3a.527.527,0,0,0,0-1.055Z" transform="translate(-405.076 -189.706)" fill="#868686"/>
      <path id="Path_148" data-name="Path 148" d="M409.738,296.757l-1.23-.71a.527.527,0,1,0-.527.913l1.23.71a.527.527,0,1,0,.527-.913Z" transform="translate(-382.175 -275.165)" fill="#868686"/>
    </g>
  </g>
</svg>
