<svg width="32" height="33" viewBox="0 0 32 33" fill="none" xmlns="http://www.w3.org/2000/svg">
<path d="M31.9038 10.3546C31.8259 8.64919 31.5554 7.48451 31.1599 6.46555C30.7583 5.39646 30.1284 4.4281 29.3145 3.62769C28.5154 2.81261 27.5481 2.18163 26.4805 1.77922C25.4626 1.38342 24.2998 1.11279 22.5967 1.03529C20.8904 0.957057 20.3452 0.938477 16 0.938477C11.6548 0.938477 11.1096 0.957057 9.40332 1.0348C7.7002 1.11279 6.53735 1.38366 5.51953 1.77971C4.4519 2.18187 3.48486 2.81261 2.68555 3.62769C1.87158 4.42785 1.24146 5.39622 0.8396 6.4653C0.444336 7.48451 0.174072 8.64919 0.0966797 10.3544C0.0185547 12.0633 0 12.6089 0 16.9601C0 21.3115 0.0185547 21.8574 0.0966797 23.566C0.174316 25.2712 0.444824 26.4359 0.840332 27.4551C1.24194 28.5239 1.87183 29.4926 2.68579 30.2927C3.48486 31.1078 4.45215 31.7385 5.51978 32.1407C6.53735 32.537 7.70044 32.8076 9.40356 32.8856C11.1101 32.9636 11.655 32.9819 16.0002 32.9819C20.3455 32.9819 20.8906 32.9636 22.5969 32.8856C24.3 32.8076 25.4629 32.537 26.4807 32.1407C28.6299 31.3085 30.3289 29.6072 31.1599 27.4551C31.5557 26.4359 31.8259 25.2712 31.9038 23.566C31.9814 21.8571 32 21.3115 32 16.9603C32 12.6089 31.9814 12.0633 31.9038 10.3546ZM29.0237 23.4347C28.9526 24.9969 28.6919 25.8452 28.4729 26.4097C27.9346 27.8072 26.8318 28.9114 25.4363 29.4505C24.8726 29.6698 24.0254 29.9309 22.4653 30.002C20.7786 30.0793 20.2725 30.0954 16 30.0954C11.7273 30.0954 11.2214 30.0793 9.53442 30.002C7.97461 29.9309 7.12744 29.6698 6.56348 29.4505C5.86865 29.1936 5.23999 28.7841 4.72388 28.2519C4.19238 27.735 3.78345 27.1058 3.52686 26.4097C3.30786 25.8452 3.04712 24.9969 2.97607 23.4347C2.89917 21.7454 2.88281 21.2386 2.88281 16.9606C2.88281 12.6823 2.89917 12.1757 2.97607 10.4862C3.04736 8.92398 3.30786 8.07565 3.52686 7.51116C3.78345 6.81514 4.19263 6.18562 4.72388 5.6688C5.23999 5.13658 5.86865 4.72709 6.56372 4.47039C7.12744 4.25086 7.97461 3.99 9.53467 3.91862C11.2217 3.84161 11.7278 3.82523 16 3.82523H15.9998C20.272 3.82523 20.7781 3.84161 22.4653 3.91886C24.0254 3.99 24.8723 4.2511 25.4363 4.47039C26.1311 4.72734 26.7598 5.13683 27.2759 5.6688C27.8074 6.18562 28.2163 6.81514 28.4727 7.51116C28.6919 8.07565 28.9526 8.92398 29.0237 10.4862C29.1006 12.1755 29.1169 12.6823 29.1169 16.9603C29.1169 21.2386 29.1008 21.7452 29.0237 23.4347Z" fill="#656565"/>
<path d="M15.9998 8.73291C11.4622 8.73291 7.78369 12.4168 7.78369 16.9608C7.78369 21.5048 11.4622 25.1885 15.9998 25.1885C20.5376 25.1885 24.2161 21.5048 24.2161 16.9608C24.2161 12.4168 20.5376 8.73291 15.9998 8.73291ZM15.9998 22.3016C13.0544 22.3014 10.6665 19.9103 10.6667 16.9606C10.6667 14.0111 13.0544 11.6198 16 11.6198C18.9456 11.62 21.3333 14.0111 21.3333 16.9606C21.3333 19.9103 18.9453 22.3016 15.9998 22.3016Z" fill="#656565"/>
<path d="M26.4607 8.40833C26.4607 9.47018 25.6011 10.3311 24.5408 10.3311C23.4802 10.3311 22.6206 9.47018 22.6206 8.40833C22.6206 7.34623 23.4802 6.48535 24.5408 6.48535C25.6011 6.48535 26.4607 7.34623 26.4607 8.40833Z" fill="#656565"/>
</svg>
