<?xml version="1.0" encoding="utf-8"?>
<!-- Generator: Adobe Illustrator 25.0.0, SVG Export Plug-In . SVG Version: 6.00 Build 0)  -->
<svg version="1.1" xmlns="http://www.w3.org/2000/svg" xmlns:xlink="http://www.w3.org/1999/xlink" x="0px" y="0px" width="37px"
	 height="37px" viewBox="0 0 37 37" style="enable-background:new 0 0 37 37;" xml:space="preserve">
<style type="text/css">
	.st0{display:none;}
	.st1{display:inline;}
	.st2{fill:#231815;}
	.st3{fill:url(#SVGID_1_);}
	.st4{fill:url(#SVGID_2_);}
	.st5{fill:url(#SVGID_3_);}
	.st6{fill:url(#SVGID_4_);}
	.st7{fill:url(#SVGID_5_);}
	.st8{fill:url(#SVGID_6_);}
	.st9{fill:url(#SVGID_7_);}
	.st10{fill:url(#SVGID_8_);}
	.st11{fill:url(#SVGID_9_);}
	.st12{fill:url(#SVGID_10_);}
	.st13{fill:url(#SVGID_11_);}
	.st14{fill:url(#SVGID_12_);}
	.st15{fill:url(#SVGID_13_);}
	.st16{fill:url(#SVGID_14_);}
	.st17{fill:url(#SVGID_15_);}
	.st18{fill:url(#SVGID_16_);}
	.st19{fill:url(#SVGID_17_);}
	.st20{fill:url(#SVGID_18_);}
	.st21{fill:url(#SVGID_19_);}
	.st22{fill:none;stroke:#1FA2DC;stroke-linecap:round;stroke-miterlimit:10;}
	.st23{fill:none;stroke:#1FA2DC;stroke-miterlimit:10;}
	.st24{fill:#1FA2DC;}
	.st25{fill:#858585;}
	.st26{fill:none;stroke:#858585;stroke-linecap:round;stroke-miterlimit:10;}
	.st27{fill:#868686;}
	.st28{fill:#00AEEF;}
	.st29{fill:none;stroke:#1FA2DC;stroke-width:0.7;stroke-linecap:round;stroke-miterlimit:10;}
	.st30{fill:none;stroke:#1FA2DC;stroke-width:0.7;stroke-linecap:round;stroke-linejoin:round;stroke-miterlimit:10;}
	.st31{fill:none;stroke:#1FA2DC;stroke-linecap:round;stroke-linejoin:round;stroke-miterlimit:10;}
	.st32{fill:none;stroke:#858585;stroke-linecap:round;stroke-linejoin:round;stroke-miterlimit:10;}
	.st33{fill-rule:evenodd;clip-rule:evenodd;fill:none;stroke:#1FA2DC;stroke-miterlimit:10;}
	.st34{fill:none;stroke:#858585;stroke-miterlimit:10;}
	.st35{display:inline;clip-path:url(#SVGID_21_);}
	.st36{fill:none;stroke:#1FA2DC;stroke-linecap:round;stroke-linejoin:round;stroke-miterlimit:10;stroke-dasharray:1,3;}
	.st37{fill-rule:evenodd;clip-rule:evenodd;fill:none;stroke:#858585;stroke-miterlimit:10;}
</style>
<g id="圖層_1" class="st0">
	<g class="st1">
		<path class="st2" d="M33.25,3.75v29.5H3.75V3.75H33.25 M33.5,3.5h-30v30h30V3.5L33.5,3.5z"/>
	</g>
</g>
<g id="圖層_3">
</g>
<g id="圖層_2">
	<g>
		<path class="st25" d="M23.227,10.928c0.315,0,0.571,0.256,0.571,0.571V24.85c0,0.315-0.256,0.571-0.571,0.571h-9.453
			c-0.315,0-0.571-0.256-0.571-0.571V11.499c0-0.315,0.256-0.571,0.571-0.571H23.227 M23.227,9.928h-9.453
			c-0.868,0-1.571,0.703-1.571,1.571V24.85c0,0.868,0.704,1.571,1.571,1.571h9.453c0.868,0,1.571-0.704,1.571-1.571V11.499
			C24.798,10.631,24.094,9.928,23.227,9.928L23.227,9.928z"/>
	</g>
	<g>
		<path class="st24" d="M24.31,6.471c0.26,0,0.472,0.212,0.472,0.472s-0.212,0.472-0.472,0.472H12.657
			c-0.26,0-0.472-0.212-0.472-0.472s0.212-0.472,0.472-0.472H24.31 M24.31,5.471H12.657c-0.813,0-1.472,0.659-1.472,1.472
			c0,0.813,0.659,1.472,1.472,1.472H24.31c0.813,0,1.472-0.659,1.472-1.472C25.782,6.13,25.123,5.471,24.31,5.471L24.31,5.471z"/>
	</g>
	<g>
		<path class="st24" d="M28.108,4.5c0.26,0,0.472,0.212,0.472,0.472V30.5c0,1.103-0.897,2-2,2H10.42c-1.103,0-2-0.897-2-2V4.972
			c0-0.26,0.212-0.472,0.472-0.472c0.26,0,0.472,0.212,0.472,0.472v22.048c0,1.103,0.897,2,2,2h14.272c1.103,0,2-0.897,2-2V4.972
			C27.636,4.712,27.848,4.5,28.108,4.5 M28.108,3.5c-0.813,0-1.472,0.659-1.472,1.472v22.048c0,0.552-0.448,1-1,1H11.364
			c-0.552,0-1-0.448-1-1V4.972c0-0.813-0.659-1.472-1.472-1.472C8.079,3.5,7.42,4.159,7.42,4.972V30.5c0,1.657,1.343,3,3,3H26.58
			c1.657,0,3-1.343,3-3V4.972C29.58,4.159,28.921,3.5,28.108,3.5L28.108,3.5z"/>
	</g>
	<line class="st22" x1="10.968" y1="30.766" x2="13.436" y2="30.766"/>
	<line class="st22" x1="16.105" y1="30.766" x2="16.738" y2="30.766"/>
	<line class="st22" x1="19.237" y1="30.766" x2="26.593" y2="30.766"/>
</g>
</svg>
