<svg xmlns="http://www.w3.org/2000/svg" width="48" height="36" viewBox="0 0 48 36">
  <g id="usb-hub" transform="translate(0 -8)">
    <path id="Path_105" data-name="Path 105" d="M13,48H7.752a.749.749,0,0,0-.75.75V51a.749.749,0,0,0,.75.75H13a.749.749,0,0,0,.75-.75V48.748A.749.749,0,0,0,13,48Zm-.75,2.251H8.5V49.5h3.75Z" transform="translate(-1.75 -10)" fill="#00aeef"/>
    <path id="Path_106" data-name="Path 106" d="M24,48h-5.25a.749.749,0,0,0-.75.75V51a.749.749,0,0,0,.75.75H24a.749.749,0,0,0,.75-.75V48.748A.749.749,0,0,0,24,48Zm-.75,2.251H19.5V49.5h3.75Z" transform="translate(-4.501 -10)" fill="#00aeef"/>
    <path id="Path_107" data-name="Path 107" d="M41.748,51h-12a.75.75,0,0,0,0,1.5h12a.75.75,0,0,0,0-1.5Z" transform="translate(-7.25 -10.75)" fill="#868686"/>
    <path id="Path_108" data-name="Path 108" d="M29.74,49.5h6a.75.75,0,0,0,0-1.5h-6a.75.75,0,0,0,0,1.5Z" transform="translate(-7.247 -10)" fill="#868686"/>
    <path id="Path_109" data-name="Path 109" d="M42.755,11h-24v-.752a.746.746,0,0,0-.221-.531l-1.5-1.5A.749.749,0,0,0,16.5,8H11.25a.749.749,0,0,0-.75.75H8.248a.749.749,0,0,0-.75.75V14a.749.749,0,0,0,.75.75H10.5a.749.749,0,0,0,.75.75H16.5a.747.747,0,0,0,.53-.22l1.5-1.5a.749.749,0,0,0,.22-.53V12.5h24a3.754,3.754,0,0,1,3.75,3.75v10.5a3.754,3.754,0,0,1-3.75,3.75H40.5V23.752A3.754,3.754,0,0,0,36.75,20h-33A3.754,3.754,0,0,0,0,23.752v16.5A3.754,3.754,0,0,0,3.75,44h33a3.754,3.754,0,0,0,3.75-3.75V32h2.255A5.257,5.257,0,0,0,48,26.748v-10.5A5.257,5.257,0,0,0,42.755,11ZM9,13.25v-3h1.5v3ZM16.19,14H12V9.5h4.19l1.062,1.06v1.168c0,.008,0,.014,0,.022s0,.014,0,.022v1.165ZM1.5,23.752A2.253,2.253,0,0,1,3.75,21.5h33A2.253,2.253,0,0,1,39,23.752V33.5a2.253,2.253,0,0,1-2.25,2.25h-33A2.253,2.253,0,0,1,1.5,33.5V23.752ZM36.75,42.5h-33A2.253,2.253,0,0,1,1.5,40.25V36.48a3.711,3.711,0,0,0,2.25.769h33A3.715,3.715,0,0,0,39,36.48v3.77A2.253,2.253,0,0,1,36.75,42.5Z" fill="#868686"/>
    <path id="Path_110" data-name="Path 110" d="M16.75,35.5h15a.75.75,0,1,0,0-1.5h-15a.75.75,0,0,0,0,1.5Z" transform="translate(-4 -6.5)" fill="#868686"/>
    <path id="Path_111" data-name="Path 111" d="M28.75,37h-6a.75.75,0,0,0,0,1.5h6a.75.75,0,1,0,0-1.5Z" transform="translate(-5.5 -7.25)" fill="#868686"/>
  </g>
</svg>
