<svg xmlns="http://www.w3.org/2000/svg" width="33.047" height="36" viewBox="0 0 33.047 36">
  <g id="mouse-clicker" transform="translate(-21)">
    <path id="Path_149" data-name="Path 149" d="M51.586,25.453H42.571L41.679,21.8H48.07a3.168,3.168,0,0,0,3.164-3.164V3.164A3.168,3.168,0,0,0,48.07,0H26.977a3.168,3.168,0,0,0-3.164,3.164V18.633A3.168,3.168,0,0,0,26.977,21.8h6.392l-.892,3.656H23.461A2.464,2.464,0,0,0,21,27.914v5.625A2.464,2.464,0,0,0,23.461,36H51.586a2.464,2.464,0,0,0,2.461-2.461V27.914A2.464,2.464,0,0,0,51.586,25.453ZM26.977,2.109H48.07a1.056,1.056,0,0,1,1.055,1.055v12.3h-23.2V3.164A1.056,1.056,0,0,1,26.977,2.109ZM25.922,18.633V17.578h23.2v1.055a1.056,1.056,0,0,1-1.055,1.055H26.977A1.056,1.056,0,0,1,25.922,18.633ZM35.539,21.8h3.968l.892,3.656H34.648Zm16.4,11.742a.352.352,0,0,1-.352.352H23.461a.352.352,0,0,1-.352-.352V27.914a.352.352,0,0,1,.352-.352H51.586a.352.352,0,0,1,.352.352Z" fill="#868686"/>
    <circle id="Ellipse_39" data-name="Ellipse 39" cx="1.055" cy="1.055" r="1.055" transform="translate(25.219 29.672)" fill="#00aeef"/>
    <circle id="Ellipse_40" data-name="Ellipse 40" cx="1.055" cy="1.055" r="1.055" transform="translate(29.438 29.672)" fill="#00aeef"/>
    <circle id="Ellipse_41" data-name="Ellipse 41" cx="1.055" cy="1.055" r="1.055" transform="translate(33.656 29.672)" fill="#00aeef"/>
    <path id="Path_150" data-name="Path 150" d="M299.789,422h-7.734a1.055,1.055,0,0,0,0,2.109h7.734a1.055,1.055,0,0,0,0-2.109Z" transform="translate(-251.016 -392.328)" fill="#00aeef"/>
  </g>
</svg>
